<?xml version="1.0" standalone="no"?><!DOCTYPE svg PUBLIC "-//W3C//DTD SVG 1.1//EN" "http://www.w3.org/Graphics/SVG/1.1/DTD/svg11.dtd"><svg t="1596872883654" class="icon" viewBox="0 0 1279 1024" version="1.1" xmlns="http://www.w3.org/2000/svg" p-id="1216" xmlns:xlink="http://www.w3.org/1999/xlink" width="159.875" height="128"><defs><style type="text/css"></style></defs><path d="M596.4498575 788.93057281a44.8883475 44.8883475 0 0 0 15.72066656 9.61429125 46.51238344 46.51238344 0 0 0 18.38408438 3.83272406c1.55907469 0 2.92326469-0.71457562 4.54729969-0.84449812a46.18757625 46.18757625 0 0 0 32.480715-12.66747938l365.47300031-348.51806718a41.51035313 41.51035313 0 0 0 0-60.80389782 46.70726719 46.70726719 0 0 0-63.857085 0l-293.23589156 279.33414563V75.00446656a45.47300062 45.47300062 0 0 0-90.29638594 0v581.85952032L294.509135 379.73853031a46.77222937 46.77222937 0 0 0-63.857085 0 41.57531438 41.57531438 0 0 0 0 60.80389781z m589.00527844-109.07023969a45.08323219 45.08323219 0 0 0-46.122615 43.91392594v136.41900094a45.08323219 45.08323219 0 0 1-46.12261406 43.91392594H170.56272875a45.08323219 45.08323219 0 0 1-46.122615-43.91392594v-136.41900094a46.122615 46.122615 0 0 0-92.18026781 0v136.41900094c0 72.69183938 62.03816438 131.80674 138.30288281 131.80674h922.45229344c76.2647175 0 138.30288281-59.11490063 138.30288281-131.80674v-136.41900094a45.08323219 45.08323219 0 0 0-45.86276906-43.97888719z" p-id="1217"></path></svg>