<?xml version="1.0" standalone="no"?><!DOCTYPE svg PUBLIC "-//W3C//DTD SVG 1.1//EN" "http://www.w3.org/Graphics/SVG/1.1/DTD/svg11.dtd"><svg t="1596872876135" class="icon" viewBox="0 0 1024 1024" version="1.1" xmlns="http://www.w3.org/2000/svg" p-id="936" xmlns:xlink="http://www.w3.org/1999/xlink" width="128" height="128"><defs><style type="text/css"></style></defs><path d="M518.15024242 32.46976273c-266.07980341 0-482.58857456 216.48363322-482.58857456 482.56343663 0 266.1300778 216.50877115 482.63884895 482.58857456 482.63884895 266.07980341 0 482.58857456-216.50877115 482.58857456-482.63884895C1000.73881551 248.92825947 784.23004435 32.46976273 518.15024242 32.46976273zM580.7173302 826.76259292c-14.88136499 15.43438769-33.96068199 23.27726898-56.78547706 23.27726899-23.85543109 0-43.9402447-8.16966849-59.90252014-24.18221684-15.83658723-16.0125498-23.85543109-35.19241559-23.85543112-57.01171403 0-21.06517525 7.44068177-38.83734489 22.19636007-52.81376203 19.43124067-18.45088051 39.64174246-27.82714613 59.95279453-27.82714613 22.0958098 0 41.22540118 7.99370593 56.88602732 23.7297429 15.78631284 15.66062467 23.72974291 34.96617862 23.72974293 57.46418797C602.96396465 792.12320152 595.47300701 811.47902984 580.7173302 826.76259292zM602.86341439 378.86368711l-28.27962005 147.28026124c-7.39040737 44.46813097-15.66062467 80.86714511-24.63469076 107.99044244l-1.03063456 3.29300415c0 0-8.9740661 0.45247391-12.54358308 0.45247394l-45.37307878-0.22623697-38.43514536-173.34778609c-13.44853092-67.61971325-22.0958098-114.92837591-26.39431204-144.61569213-2.2623696-19.2050037-3.34328002-33.3825199-3.34328004-42.58282294 0-2.71484352 0.85467346-8.57186657 2.79025588-17.44538387 1.70934544-19.02904261 9.07461634-33.78471942 21.91984723-43.56318313 12.36762051-9.30085331 29.76272854-14.88136499 51.83340186-16.46502373 11.76432195-1.80989569 19.75802788-2.79025584 23.32754486-2.79025584 25.21285285 0 46.78077643 6.53573393 64.05019774 19.48151653 17.82244549 13.29770628 26.79651157 32.12564838 26.79651158 56.1570406C613.5468274 293.572353 610.00244835 328.31229467 602.86341439 378.86368711z" p-id="937"></path></svg>