<?xml version="1.0" standalone="no"?><!DOCTYPE svg PUBLIC "-//W3C//DTD SVG 1.1//EN" "http://www.w3.org/Graphics/SVG/1.1/DTD/svg11.dtd"><svg t="1596872887549" class="icon" viewBox="0 0 1024 1024" version="1.1" xmlns="http://www.w3.org/2000/svg" p-id="1356" xmlns:xlink="http://www.w3.org/1999/xlink" width="128" height="128"><defs><style type="text/css"></style></defs><path d="M872 632a120 120 0 0 0 0-240H851.19999969a357.24799969 357.24799969 0 0 0-14.46399938-35.07199969l14.65599938-14.65600031a120 120 0 0 0-169.66399969-169.66399969l-14.65600031 14.65599938a350.91199969 350.91199969 0 0 0-35.07199969-14.46399938v-20.80000031a120 120 0 0 0-240 0V172.80000031a350.91199969 350.91199969 0 0 0-35.07199969 14.46399938l-14.65600031-14.65599938a120 120 0 0 0-169.66399969 169.66399969l14.65599938 14.65600031a366.72 366.72 0 0 0-14.46399938 35.07199969h-20.80000031a120 120 0 0 0 0 240H172.80000031a366.72 366.72 0 0 0 14.46399938 35.07199969l-14.65599938 14.65600031a120 120 0 0 0 169.66399969 169.66399969l14.65600031-14.65599938a350.91199969 350.91199969 0 0 0 35.07199969 14.46399938v20.80000031a120 120 0 0 0 240 0V851.19999969a350.91199969 350.91199969 0 0 0 35.07199969-14.46399938l14.65600031 14.65599938a120 120 0 0 0 169.66399969-169.66399969l-14.65599938-14.71999969a349.824 349.824 0 0 0 14.46399938-35.00800031h20.80000031z m-63.04000031 92.16a60.16000031 60.16000031 0 0 1 0 84.79999969 61.632 61.632 0 0 1-84.79999969 0l-46.20799969-46.20799969-19.84000031 11.07199969a299.20000031 299.20000031 0 0 1-64.00000031 26.56000031l-21.82399969 6.40000031v65.40799969a60.03199969 60.03199969 0 0 1-120.06400031 0V806.40000031l-21.82399969-6.40000031a296.51200031 296.51200031 0 0 1-64.00000031-26.56000031l-19.83999938-11.07199969-46.20800062 46.20799969a61.632 61.632 0 0 1-84.79999969 0 60.16000031 60.16000031 0 0 1 0-84.79999969l46.14400031-46.20799969-11.07200062-19.84000031a298.752 298.752 0 0 1-26.496-64.00000031l-6.39999938-21.75999938H152.31999969a60.03199969 60.03199969 0 0 1 0-120.06400031H217.59999969L224 430.08000031a299.58400031 299.58400031 0 0 1 26.496-64.00000031l11.07199969-19.84000031-46.14399938-46.20799969a60.16000031 60.16000031 0 0 1 0-84.79999969 61.632 61.632 0 0 1 84.79999969 0l46.20799969 46.14399938 19.84000031-11.07199969a296.38399969 296.38399969 0 0 1 64.00000031-26.496l21.82399969-6.40000031V152a60.03199969 60.03199969 0 0 1 120.06400031 0V217.59999969l21.82399969 6.40000031a299.00800031 299.00800031 0 0 1 64.00000031 26.496l19.83999938 11.07199969 46.20800062-46.14399938a61.632 61.632 0 0 1 84.79999969 0 60.16000031 60.16000031 0 0 1 0 84.79999969l-46.14400031 46.20799969 11.00800031 19.84000031a297.34399969 297.34399969 0 0 1 26.56000031 64.00000031l6.39999938 21.82399969h65.40800062a60.03199969 60.03199969 0 0 1 0 120.06400031H806.40000031l-6.40000031 21.75999938a297.85600031 297.85600031 0 0 1-26.56000031 64.00000031l-11.00799938 19.84000031zM512 331.96800031A180.03199969 180.03199969 0 1 0 692.03199969 512 180.16000031 180.16000031 0 0 0 512 331.96800031z m0 300.03199969A120 120 0 1 1 632 512 120.12799969 120.12799969 0 0 1 512 632z" p-id="1357"></path></svg>