<?xml version="1.0" standalone="no"?><!DOCTYPE svg PUBLIC "-//W3C//DTD SVG 1.1//EN" "http://www.w3.org/Graphics/SVG/1.1/DTD/svg11.dtd"><svg t="1596872880471" class="icon" viewBox="0 0 1024 1024" version="1.1" xmlns="http://www.w3.org/2000/svg" p-id="1076" xmlns:xlink="http://www.w3.org/1999/xlink" width="128" height="128"><defs><style type="text/css"></style></defs><path d="M515.30579797 29.62531828c-266.07980341 0-482.58857456 216.48363322-482.58857456 482.56343663 0 266.1300778 216.50877115 482.63884895 482.58857456 482.63884895 266.07980341 0 482.58857456-216.50877115 482.58857456-482.63884895C997.89437106 246.08381503 781.3855999 29.62531828 515.30579797 29.62531828zM577.87288576 823.91814848c-14.88136499 15.43438769-33.96068199 23.27726898-56.78547707 23.27726898-23.85543109 0-43.9402447-8.16966849-59.90252014-24.18221683-15.83658723-16.0125498-23.85543109-35.19241559-23.85543111-57.01171404 0-21.06517525 7.44068177-38.83734489 22.19636006-52.81376202 19.43124067-18.45088051 39.64174246-27.82714613 59.95279453-27.82714614 22.0958098 0 41.22540118 7.99370593 56.88602733 23.7297429 15.78631284 15.66062467 23.72974291 34.96617862 23.72974292 57.46418797C600.1195202 789.27875708 592.62856257 808.6345854 577.87288576 823.91814848zM600.01896994 376.01924267l-28.27962004 147.28026123c-7.39040737 44.46813097-15.66062467 80.86714511-24.63469076 107.99044245l-1.03063456 3.29300415c0 0-8.9740661 0.45247391-12.54358309 0.45247394l-45.37307877-0.22623697-38.43514537-173.34778609c-13.44853092-67.61971325-22.0958098-114.92837591-26.39431204-144.61569213-2.2623696-19.2050037-3.34328002-33.3825199-3.34328003-42.58282295 0-2.71484352 0.85467346-8.57186657 2.79025587-17.44538387 1.70934544-19.02904261 9.07461634-33.78471942 21.91984723-43.56318312 12.36762051-9.30085331 29.76272854-14.88136499 51.83340187-16.46502374 11.76432195-1.80989569 19.75802788-2.79025584 23.32754485-2.79025584 25.21285285 0 46.78077643 6.53573393 64.05019774 19.48151654 17.82244549 13.29770628 26.79651157 32.12564838 26.79651159 56.15704059C610.70238295 290.72790855 607.1580039 325.46785023 600.01896994 376.01924267z" p-id="1077"></path></svg>